<svg width="48" height="48" viewBox="0 0 48 48" fill="none" xmlns="http://www.w3.org/2000/svg">
<path d="M24 48C37.2548 48 48 37.2548 48 24C48.0001 10.7452 37.2549 4.51893e-05 24.0001 2.56424e-05C10.7453 6.09556e-06 6.81314e-05 10.7451 4.86511e-05 24C2.91708e-05 37.2548 10.7452 47.9999 24 48Z" fill="white"/>
<path d="M24.8108 18.7155L24.9954 18.547C24.8277 18.3633 24.6015 18.2501 24.3548 18.2501C24.108 18.2501 23.8818 18.3633 23.7141 18.547L23.7141 18.5469L23.7108 18.5506L19.7505 23.0653L19.3866 23.4801L19.5334 23.4801C19.5112 23.5678 19.5001 23.6588 19.5001 23.7499C19.5001 23.8768 19.5217 24.0034 19.5646 24.1215C19.607 24.2384 19.6702 24.3465 19.7528 24.4367L23.7112 28.9496L23.7111 28.9496L23.7145 28.9533C23.8822 29.137 24.1084 29.2501 24.3551 29.2501C24.6016 29.2501 24.8276 29.1372 24.9953 28.9539C25.0789 28.8633 25.1427 28.7544 25.1855 28.6366C25.2285 28.5184 25.2501 28.3917 25.2501 28.2647C25.2501 28.1378 25.2285 28.011 25.1855 27.8929C25.1431 27.776 25.0798 27.6678 24.9971 27.5777L21.6395 23.7499L24.9968 19.9226C25.0795 19.8324 25.1427 19.7242 25.1852 19.6073C25.2281 19.4892 25.2497 19.3625 25.2497 19.2355C25.2497 19.1085 25.2281 18.9818 25.1852 18.8637C25.1423 18.7456 25.0782 18.6365 24.9944 18.5458L24.8108 18.7155ZM24.8108 18.7155C24.87 18.7796 24.9176 18.8593 24.9502 18.9491L23.8987 18.7155C24.0256 18.5766 24.1874 18.5001 24.3548 18.5001C24.5221 18.5001 24.684 18.5766 24.8108 18.7155Z" fill="black" stroke="black" stroke-width="0.5"/>
</svg>
