<svg width="48" height="48" viewBox="0 0 48 48" fill="none" xmlns="http://www.w3.org/2000/svg">
<path d="M24 -1.32326e-05C10.7452 -1.85653e-05 1.49371e-05 10.7451 9.62264e-06 23.9999C4.3082e-06 37.2548 10.7452 47.9999 24 47.9999C37.2548 47.9999 48 37.2548 48 24C48 10.7451 37.2549 -7.90005e-06 24 -1.32326e-05Z" fill="white"/>
<path d="M22.1893 29.2847L22.0047 29.4532C22.1724 29.6369 22.3986 29.7501 22.6453 29.7501C22.8921 29.7501 23.1183 29.6369 23.286 29.4532L23.286 29.4533L23.2893 29.4495L27.2496 24.9349L27.6135 24.5201L27.4667 24.5201C27.4889 24.4323 27.5 24.3414 27.5 24.2503C27.5 24.1234 27.4784 23.9968 27.4355 23.8787C27.3931 23.7618 27.3299 23.6537 27.2473 23.5635L23.2889 19.0506L23.289 19.0506L23.2856 19.0469C23.1179 18.8632 22.8917 18.7501 22.645 18.7501C22.3985 18.7501 22.1725 18.8629 22.0048 19.0463C21.9212 19.1369 21.8573 19.2458 21.8145 19.3636C21.7716 19.4817 21.75 19.6084 21.75 19.7354C21.75 19.8624 21.7716 19.9891 21.8145 20.1073C21.857 20.2242 21.9203 20.3323 22.0029 20.4225L25.3606 24.2503L22.0033 28.0776C21.9206 28.1678 21.8574 28.2759 21.8149 28.3929C21.772 28.511 21.7504 28.6377 21.7504 28.7647C21.7504 28.8917 21.772 29.0184 21.8149 29.1365C21.8578 29.2545 21.9219 29.3637 22.0057 29.4544L22.1893 29.2847ZM22.1893 29.2847C22.3162 29.4236 22.478 29.5001 22.6453 29.5001C22.8127 29.5001 22.9745 29.4236 23.1014 29.2847L22.1893 28.2447C22.1301 28.3088 22.0825 28.3884 22.0499 28.4782C22.0173 28.568 22.0004 28.6658 22.0004 28.7647C22.0004 28.8636 22.0173 28.9613 22.0499 29.0511C22.0825 29.1409 22.1301 29.2206 22.1893 29.2847Z" fill="black" stroke="black" stroke-width="0.5"/>
</svg>
