<svg width="260" height="94" viewBox="0 0 260 94" fill="none" xmlns="http://www.w3.org/2000/svg">
<rect x="0.674683" width="258.651" height="94" rx="24" fill="white"/>
<path d="M130 47V19H142C142.53 19 143.039 19.2107 143.414 19.5858C143.789 19.9609 144 20.4696 144 21V45C144 45.5304 143.789 46.0391 143.414 46.4142C143.039 46.7893 142.53 47 142 47H130ZM142 49C143.061 49 144.078 48.5786 144.828 47.8284C145.579 47.0783 146 46.0609 146 45V21C146 19.9391 145.579 18.9217 144.828 18.1716C144.078 17.4214 143.061 17 142 17H118C116.939 17 115.922 17.4214 115.172 18.1716C114.421 18.9217 114 19.9391 114 21V45C114 46.0609 114.421 47.0783 115.172 47.8284C115.922 48.5786 116.939 49 118 49H142Z" fill="black"/>
<path d="M69.9254 74H77.3743V71.9716H72.3856V62.3636H69.9254V74ZM82.9013 74.1705C85.549 74.1705 87.1967 72.358 87.1967 69.6705C87.1967 66.9659 85.549 65.1591 82.9013 65.1591C80.2535 65.1591 78.6058 66.9659 78.6058 69.6705C78.6058 72.358 80.2535 74.1705 82.9013 74.1705ZM82.9126 72.2955C81.691 72.2955 81.066 71.1761 81.066 69.6534C81.066 68.1307 81.691 67.0057 82.9126 67.0057C84.1115 67.0057 84.7365 68.1307 84.7365 69.6534C84.7365 71.1761 84.1115 72.2955 82.9126 72.2955ZM92.7024 77.4545C95.1967 77.4545 96.9694 76.3182 96.9694 74.0852V65.2727H94.566V66.7386H94.4751C94.1513 66.0284 93.441 65.1591 91.9808 65.1591C90.066 65.1591 88.4467 66.6477 88.4467 69.6193C88.4467 72.5227 90.0206 73.875 91.9865 73.875C93.3785 73.875 94.1569 73.1761 94.4751 72.4545H94.5774V74.0511C94.5774 75.25 93.8104 75.7159 92.7592 75.7159C91.691 75.7159 91.1513 75.25 90.9524 74.7216L88.7138 75.0227C89.0035 76.3977 90.3501 77.4545 92.7024 77.4545ZM92.7535 72.0568C91.566 72.0568 90.9183 71.1136 90.9183 69.608C90.9183 68.125 91.5547 67.0852 92.7535 67.0852C93.9297 67.0852 94.5888 68.0795 94.5888 69.608C94.5888 71.1477 93.9183 72.0568 92.7535 72.0568ZM102.839 74.1705C105.486 74.1705 107.134 72.358 107.134 69.6705C107.134 66.9659 105.486 65.1591 102.839 65.1591C100.191 65.1591 98.5433 66.9659 98.5433 69.6705C98.5433 72.358 100.191 74.1705 102.839 74.1705ZM102.85 72.2955C101.629 72.2955 101.004 71.1761 101.004 69.6534C101.004 68.1307 101.629 67.0057 102.85 67.0057C104.049 67.0057 104.674 68.1307 104.674 69.6534C104.674 71.1761 104.049 72.2955 102.85 72.2955ZM115.627 74.142C117.036 74.142 117.769 73.3295 118.104 72.6023H118.207V74H120.593V62.3636H118.178V66.7386H118.104C117.781 66.0284 117.082 65.1591 115.621 65.1591C113.707 65.1591 112.087 66.6477 112.087 69.6477C112.087 72.5682 113.638 74.142 115.627 74.142ZM116.394 72.2159C115.207 72.2159 114.559 71.1591 114.559 69.6364C114.559 68.125 115.195 67.0852 116.394 67.0852C117.57 67.0852 118.229 68.0795 118.229 69.6364C118.229 71.1932 117.559 72.2159 116.394 72.2159ZM126.526 74.1705C129.174 74.1705 130.822 72.358 130.822 69.6705C130.822 66.9659 129.174 65.1591 126.526 65.1591C123.879 65.1591 122.231 66.9659 122.231 69.6705C122.231 72.358 123.879 74.1705 126.526 74.1705ZM126.538 72.2955C125.316 72.2955 124.691 71.1761 124.691 69.6534C124.691 68.1307 125.316 67.0057 126.538 67.0057C127.736 67.0057 128.361 68.1307 128.361 69.6534C128.361 71.1761 127.736 72.2955 126.538 72.2955ZM146.411 66.4375C146.087 63.75 144.053 62.2045 141.36 62.2045C138.286 62.2045 135.94 64.375 135.94 68.1818C135.94 71.9773 138.246 74.1591 141.36 74.1591C144.343 74.1591 146.144 72.1761 146.411 70.0341L143.923 70.0227C143.69 71.267 142.712 71.983 141.4 71.983C139.633 71.983 138.434 70.6705 138.434 68.1818C138.434 65.7614 139.616 64.3807 141.417 64.3807C142.763 64.3807 143.735 65.1591 143.923 66.4375H146.411ZM150.55 62.3636H148.13V74H150.55V62.3636ZM152.489 74H154.91V65.2727H152.489V74ZM153.705 64.1477C154.427 64.1477 155.018 63.5966 155.018 62.9205C155.018 62.25 154.427 61.6989 153.705 61.6989C152.989 61.6989 152.398 62.25 152.398 62.9205C152.398 63.5966 152.989 64.1477 153.705 64.1477ZM160.826 74.1705C162.985 74.1705 164.44 73.1193 164.781 71.5L162.542 71.3523C162.298 72.017 161.673 72.3636 160.866 72.3636C159.656 72.3636 158.888 71.5625 158.888 70.2614V70.2557H164.832V69.5909C164.832 66.625 163.036 65.1591 160.729 65.1591C158.161 65.1591 156.496 66.983 156.496 69.6761C156.496 72.4432 158.138 74.1705 160.826 74.1705ZM158.888 68.7557C158.94 67.7614 159.695 66.9659 160.769 66.9659C161.82 66.9659 162.548 67.7159 162.553 68.7557H158.888ZM168.832 68.9545C168.837 67.8295 169.508 67.1705 170.485 67.1705C171.457 67.1705 172.042 67.8068 172.036 68.875V74H174.457V68.4432C174.457 66.4091 173.263 65.1591 171.445 65.1591C170.15 65.1591 169.212 65.7955 168.82 66.8125H168.718V65.2727H166.411V74H168.832V68.9545ZM181.006 65.2727H179.364V63.1818H176.944V65.2727H175.751V67.0909H176.944V71.6364C176.933 73.3466 178.097 74.1932 179.853 74.1193C180.478 74.0966 180.921 73.9716 181.165 73.892L180.785 72.0909C180.665 72.1136 180.41 72.1705 180.183 72.1705C179.7 72.1705 179.364 71.9886 179.364 71.3182V67.0909H181.006V65.2727ZM186.467 74.1705C188.626 74.1705 190.08 73.1193 190.421 71.5L188.183 71.3523C187.938 72.017 187.313 72.3636 186.506 72.3636C185.296 72.3636 184.529 71.5625 184.529 70.2614V70.2557H190.472V69.5909C190.472 66.625 188.677 65.1591 186.37 65.1591C183.802 65.1591 182.137 66.983 182.137 69.6761C182.137 72.4432 183.779 74.1705 186.467 74.1705ZM184.529 68.7557C184.58 67.7614 185.336 66.9659 186.41 66.9659C187.461 66.9659 188.188 67.7159 188.194 68.7557H184.529Z" fill="black"/>
</svg>
