<svg width="118" height="48" viewBox="0 0 118 48" fill="none" xmlns="http://www.w3.org/2000/svg">
<path fill-rule="evenodd" clip-rule="evenodd" d="M72.0585 28.2089V6.44775H88.3492L92.9175 10.8358V17.2836L88.3492 21.8507H82.3156V28.1194L72.0585 28.2089ZM38.0979 6.44775H48.6136L53.0957 10.5672L57.3192 6.44775H67.7488V28.1194H61.0256L57.0607 24L53.0095 28.1194H52.8371L48.786 24L44.7349 28.1194H38.0117L38.0979 6.44775Z" fill="#1864AB"/>
<path fill-rule="evenodd" clip-rule="evenodd" d="M107.571 24.0895L111.535 28.2089H118V21.403L113.949 17.2836L118 12.9851V6.44775H111.535L107.571 10.6567L103.606 6.44775H97.141V12.9851L101.02 17.2836L97.141 21.403V28.2089H103.606L107.571 24.0895Z" fill="#35B24C"/>
<path fill-rule="evenodd" clip-rule="evenodd" d="M107.57 10.6567L113.949 17.2836L107.57 24.0896L101.02 17.2836L107.57 10.6567Z" fill="#FCC419"/>
<path fill-rule="evenodd" clip-rule="evenodd" d="M107.484 13.6123C109.38 13.6123 110.932 15.2242 110.932 17.1944C110.932 19.1645 109.38 20.7765 107.484 20.7765C105.588 20.7765 104.037 19.1645 104.037 17.1944C104.037 15.2242 105.502 13.6123 107.484 13.6123Z" fill="#1864AB"/>
<path fill-rule="evenodd" clip-rule="evenodd" d="M17.2389 0L30.5128 6.35821L34.3915 28.0299L17.1527 48L0 28.0299L3.79255 6.35821L17.2389 0Z" fill="#1864AB"/>
<path d="M17.2381 4.74658L21.0306 6.98539L24.737 9.22419L25.8575 17.1048L21.8064 20.6869V25.5227L17.5829 23.6421V21.8511L20.3411 19.7018L17.2381 20.5078L14.1351 19.7018L16.9795 21.8511V23.6421L12.6698 25.5227V20.6869L8.61865 17.1048L9.73918 9.31375L13.5317 7.07494L17.2381 4.74658Z" fill="white"/>
<path d="M21.8062 26.4176L17.2383 29.3728L12.6704 26.4176L17.2383 24.3579L21.8062 26.4176Z" fill="white"/>
<path fill-rule="evenodd" clip-rule="evenodd" d="M23.4446 11.373L19.3077 11.7313L18.6182 15.0447C19.7386 12.7163 22.238 12.5372 23.4446 11.373Z" fill="#1864AB"/>
<path fill-rule="evenodd" clip-rule="evenodd" d="M11.033 11.373L15.1699 11.7313L15.9456 15.0447C14.739 12.7163 12.2396 12.5372 11.033 11.373Z" fill="#1864AB"/>
<path fill-rule="evenodd" clip-rule="evenodd" d="M38.0979 30.0896H43.7867C45.5106 30.0896 46.3726 30.6269 46.3726 31.7015V32.4179C46.3726 32.9552 46.114 33.4925 45.5968 33.7612C46.114 33.9403 46.4587 34.3881 46.4587 34.9254V36C46.4587 37.0746 45.5968 37.6119 43.8729 37.6119H38.1841L38.0979 30.0896ZM43.7867 36.5373C44.6487 36.5373 44.9934 36.3582 44.9934 36V34.8358C44.9934 34.6567 44.9073 34.4776 44.7349 34.4776C44.4763 34.3881 44.1315 34.2985 43.8729 34.2985H39.477V36.5373H43.7867ZM39.477 31.1642V33.1343H43.8729C44.1315 33.1343 44.4763 33.1343 44.7349 32.9552C44.9073 32.8657 44.9934 32.7761 44.9934 32.597V31.6119C44.9934 31.2537 44.5625 31.0746 43.7867 31.0746L39.477 31.1642ZM53.4405 37.6119V30H59.2155C60.9394 30 61.8013 30.5373 61.8013 31.6119V32.5075C61.8013 33.403 61.198 33.9403 59.9913 34.1194L61.7151 37.5224H60.2498L58.526 34.1194H54.8196V37.6119H53.4405ZM54.8196 31.1642V33.1343H59.2155C60.0774 33.1343 60.4222 32.9552 60.4222 32.597V31.7015C60.4222 31.3433 59.9913 31.1642 59.2155 31.1642H54.8196ZM79.2126 37.6119H77.7473L73.9547 31.4328L69.9898 37.6119H68.5245L73.4376 30H74.4719C74.3857 30 79.2126 37.6119 79.2126 37.6119ZM92.4003 33.0448C94.1242 33.0448 94.9861 33.5821 94.9861 34.6567V36C94.9861 37.0746 94.1242 37.6119 92.4003 37.6119H86.1943V36.5373H92.4003C93.2622 36.5373 93.607 36.3582 93.607 36V34.6567C93.607 34.2985 93.1761 34.1194 92.4003 34.1194H88.5216C86.7977 34.1194 85.9357 33.5821 85.9357 32.5075V31.7015C85.9357 30.6269 86.7977 30.0896 88.5216 30.0896H94.5552V31.2537H88.5216C87.7458 31.2537 87.3148 31.4328 87.3148 31.791V32.597C87.3148 32.9552 87.7458 33.1343 88.5216 33.1343L92.4003 33.0448ZM102.054 30H103.433V37.6119H102.054V30ZM110.674 30H112.053V36.5373H118V37.6119H110.674V30Z" fill="#1C7ED6"/>
</svg>
